<?xml version="1.0" encoding="UTF-8"?>
<svg id="Layer_1" xmlns="http://www.w3.org/2000/svg" version="1.1" viewBox="0 0 867.2 229">
  <!-- Generator: Adobe Illustrator 30.3.0, SVG Export Plug-In . SVG Version: 2.1.3 Build 182)  -->
  <defs>
    <style>
      .st0 {
        fill: #fff;
      }
    </style>
  </defs>
  <g>
    <g>
      <path class="st0" d="M43.1,0H0l61.5,139.7c.5,1.1,2,1.1,2.4,0l20.4-48.1L43.1,0Z"/>
      <path class="st0" d="M174.3,0s-66,151.2-74.9,165.2c-10.3,16.2-17.1,22.4-29.7,24.4-.1,0-.2.1-.2.2s.1.2.2.2h39.5c17.1,0,29.4-14.3,36.3-26.9C153.2,148.9,218.1,0,218.1,0h-43.8Z"/>
    </g>
    <g>
      <path class="st0" d="M346.9,121.3c-.1.2-.4.2-.5,0l-32.8-71.7h-18.4s33.8,76.1,37.1,81.8c3.3,5.6,7.3,10.1,14.3,10.1s11-4.6,14.3-10.1c3.4-5.7,37.1-81.8,37.1-81.8h-18.4l-32.7,71.7Z"/>
      <path class="st0" d="M446.8,47.5c-27.9,0-45.8,18.1-45.8,47.5s17.9,47.5,45.8,47.5,45.8-18.1,45.8-47.5-18-47.5-45.8-47.5ZM446.8,127.6c-17.8,0-29.5-11.6-29.5-32.5s11.7-32.5,29.5-32.5,29.5,11.6,29.5,32.5-11.8,32.5-29.5,32.5Z"/>
      <path class="st0" d="M586.8,49.6v90.9h-18.9l-44-66.4v66.4h-16.1V49.6h18.9l44,66.9V49.6h16.1Z"/>
      <path class="st0" d="M646,48.6c-6.6,0-10.7,5-13.3,10.1-2.7,5.2-35.5,81.8-35.5,81.8h16.8l9.4-22h45.2l9.4,22h16.8s-32.7-76.7-35.5-81.8c-2.6-5.1-6.7-10.1-13.3-10.1ZM629.9,103.2l15.8-37.1c.1-.2.4-.2.5,0l15.8,37.1h-32.1Z"/>
      <path class="st0" d="M740.3,105.4h28.8c-.1,14.1-13.3,22.1-27.3,22.1-17.5,0-29-11.6-29-32.5,0-22.6,10.6-32.6,30-32.6,12.1,0,22.2,5,24.3,16.4h16.7c-2.9-20-21.3-31.3-42-31.3-27.4,0-45.1,18.1-45.1,47.5s17.6,47.2,45.1,47.2c11.6,0,23.2-6.2,27.3-12.8l-.1,11h15.4v-48.9h-44.1v13.9Z"/>
      <polygon class="st0" points="867.2 64.8 867.2 49.6 801.9 49.6 801.9 140.5 867.2 140.5 867.2 125.3 818 125.3 818 101.4 863.4 101.4 863.4 86.2 818 86.2 818 64.8 867.2 64.8"/>
    </g>
  </g>
  <g>
    <path class="st0" d="M463.4,187.2h-16.6v41.3h4.8v-15.7h10.8c8.3,0,13.9-5.4,13.9-13.3-.1-7.5-5.1-12.3-12.9-12.3ZM451.6,191.8h11.1c5.3,0,8.7,3,8.7,7.9s-3.7,8.6-9.2,8.6h-10.6v-16.5h0Z"/>
    <path class="st0" d="M493.2,197.5c-6.7,0-11.4,3-13.2,8.4l-.1.4,4.4,1.3.1-.3c1.2-3.6,4.2-5.5,8.7-5.5s6.7,1.7,6.7,4.7c0,3.3-3.1,3.9-8,4.5h-.2c-5.4.7-12.2,1.6-12.2,9.1,0,5.5,3.7,8.8,9.9,8.8,3.3,0,7.7-.9,10.5-4.9v4.5h4.6v-21.6c.1-5.9-4.1-9.4-11.2-9.4ZM499.9,212.8v3.7c0,4.9-3.9,8.2-9.8,8.2-4,0-6-1.6-6-4.7,0-4.1,3.7-4.6,7.9-5.2h.2c3-.5,5.8-.9,7.7-2Z"/>
    <path class="st0" d="M527.9,197.8c-4.3,0-7.5,1.9-9.2,5.3v-5h-4.6v30.4h4.6v-15.4c0-6.9,3.2-10.7,9-10.7.8,0,1.6.1,2.5.2l.4.1.3-4.4-.3-.1c-.9-.3-1.8-.4-2.7-.4Z"/>
    <path class="st0" d="M553.1,224.2c-1.3.3-2.5.5-3.5.5-3.7,0-4.2-2.1-4.2-4.5v-17.8h7.8v-4.3h-7.8v-9.3l-4.6,1.2v8.1h-5.9v4.3h5.9v18.7c0,1.9,0,7.9,7.6,7.9,1.6,0,3.5-.3,5.3-.8l.3-.1-.5-4-.4.1Z"/>
    <path class="st0" d="M587.2,197.5c-8.5,0-13.7,6-13.7,15.7s5.3,15.7,13.7,15.7,13.8-6,13.8-15.7-5.3-15.7-13.8-15.7ZM587.2,224.7c-5.8,0-9.1-4.2-9.1-11.4s3.3-11.4,9.1-11.4,9.1,4.2,9.1,11.4-3.3,11.4-9.1,11.4Z"/>
    <path class="st0" d="M619.3,185.1c-5.8,0-8.6,2.9-8.6,8.9v4.1h-5.9v4.3h5.9v26.1h4.6v-26.1h7.9v-4.3h-7.9v-3.6c0-3.6,1.4-5.2,4.5-5.2,1,0,2,.2,3.1.5l.4.1.6-4.2-.3-.1c-1.3-.3-2.8-.5-4.3-.5Z"/>
    <polygon class="st0" points="644.9 228.5 670.6 228.5 670.6 223.9 649.7 223.9 649.7 209.6 668.7 209.6 668.7 205 649.7 205 649.7 191.8 670.6 191.8 670.6 187.2 644.9 187.2 644.9 228.5"/>
    <path class="st0" d="M692.9,197.8c-4.3,0-7.5,1.9-9.2,5.3v-5h-4.6v30.4h4.6v-15.4c0-6.9,3.2-10.7,9-10.7.8,0,1.6.1,2.5.2l.4.1.3-4.4-.3-.1c-1-.3-1.9-.4-2.7-.4Z"/>
    <rect class="st0" x="701.8" y="198.1" width="4.6" height="30.4"/>
    <rect class="st0" x="701.5" y="187.1" width="5.2" height="6.5"/>
    <path class="st0" d="M727.8,201.8c4.1,0,6.8,2.1,7.7,6l.1.4,4.5-1-.1-.4c-1.5-5.9-5.8-9.2-12.2-9.2-8.6,0-13.7,5.9-13.7,15.8s5,15.6,13.5,15.6c6.4,0,10.9-3.4,12.3-9.4l.1-.4-4.5-1-.1.4c-1,4-3.7,6.2-7.8,6.2-5.7,0-8.9-4-8.9-11.3.2-7.5,3.5-11.7,9.1-11.7Z"/>
    <path class="st0" d="M758.9,211.2c-4.3-.7-8.1-1.4-8.1-4.9,0-2.9,2.4-4.7,6.6-4.7s6.6,1.7,7.6,5.2l.1.4,4.2-1.3-.1-.4c-1.3-5.2-5.5-8-11.7-8-7,0-11.3,3.5-11.3,9.1,0,6.5,5.7,7.5,10.8,8.4h.2c4.3.8,8,1.4,8,4.9,0,3-2.6,4.9-6.7,4.9-4.4,0-7.5-2.2-8.5-6.1l-.1-.4-4.4,1.3.1.4c1.4,5.5,6.3,8.9,12.8,8.9s11.4-3.8,11.4-9.5c0-6.4-5.8-7.4-10.9-8.2Z"/>
    <path class="st0" d="M789,211.2c-4.3-.7-8.1-1.4-8.1-4.9,0-2.9,2.4-4.7,6.6-4.7s6.6,1.7,7.6,5.2l.1.4,4.2-1.3-.1-.4c-1.3-5.2-5.5-8-11.7-8-7,0-11.3,3.5-11.3,9.1,0,6.5,5.7,7.5,10.8,8.4h.2c4.3.8,8,1.4,8,4.9,0,3-2.6,4.9-6.7,4.9-4.4,0-7.5-2.2-8.5-6.1l-.1-.4-4.4,1.3.1.4c1.4,5.5,6.3,8.9,12.8,8.9s11.4-3.8,11.4-9.5c0-6.4-5.8-7.4-10.9-8.2Z"/>
    <path class="st0" d="M819.4,197.5c-8.5,0-13.7,6-13.7,15.7s5.3,15.7,13.7,15.7,13.8-6,13.8-15.7c0-9.7-5.3-15.7-13.8-15.7ZM819.4,224.7c-5.8,0-9.1-4.2-9.1-11.4s3.3-11.4,9.1-11.4,9.1,4.2,9.1,11.4c.1,7.2-3.3,11.4-9.1,11.4Z"/>
    <path class="st0" d="M855.3,197.5c-4.4,0-7.6,1.7-9.6,5v-4.5h-4.6v30.4h4.6v-17.2c0-5.6,3.5-9.4,8.8-9.4,5.6,0,6.7,4.2,6.7,7.7v18.9h4.6v-20.3c0-6.6-3.9-10.6-10.5-10.6Z"/>
  </g>
</svg>